<mxfile host="app.diagrams.net" modified="2023-07-20T19:48:14.849Z" agent="Mozilla/5.0 (Windows NT 10.0; Win64; x64) AppleWebKit/537.36 (KHTML, like Gecko) Chrome/114.0.0.0 Safari/537.36" version="21.6.3" etag="S6kkyN98vwGy4DdnwaHg" type="github">
  <diagram name="Page-1" id="pYwqx6_54ab_iyhjf2lH">
    <mxGraphModel>
      <root>
        <mxCell id="0" />
        <mxCell id="1" parent="0" />
      </root>
    </mxGraphModel>
  </diagram>
</mxfile>
